# xmcd
#
# Track frame offsets: 
#        150
#        9961
#        24782
#        46131
#        60306
#        78058
#        93002
#        115341
#        134073
#        147005
#        164791
#        180690
#        196152
#        211397
#
# Disc length: 3067 seconds
#
# Revision: 0
# Processed by: cddbd v1.5.2PL0 Copyright (c) Steve Scherf et al.
# Submitted via: ExactAudioCopy v0.99pb4
#
DISCID=ac0bf90e
DTITLE=Bow Wow and Omarion - Face Off 
DYEAR=1900
DGENRE=
TTITLE0=Track01Face Of
TTITLE1=Track02Hood Star
TTITLE2=Girlfriend
TTITLE3=Hey Baby (Jump Off)
TTITLE4=He Ain't Gotta Know
TTITLE5=Bachelor Pad
TTITLE6=Listen
TTITLE7=Can't Get Tired Of Me
TTITLE8=Number Ones
TTITLE9=Baby Girl
TTITLE10=Take Off Your Clothes
TTITLE11=Another Girl
TTITLE12=Lights, Camera, Action
TTITLE13=Let Me Hold You
EXTD=
EXTT0=
EXTT1=
EXTT2=
EXTT3=
EXTT4=
EXTT5=
EXTT6=
EXTT7=
EXTT8=
EXTT9=
EXTT10=
EXTT11=
EXTT12=
EXTT13=
PLAYORDER=
